<svg version="1.1" xmlns="http://www.w3.org/2000/svg" xmlns:xlink="http://www.w3.org/1999/xlink" width="108" height="78.7423" viewBox="0,0,108,78.7423">
<g transform="translate(-183.5,-143)">
<g data-paper-data="{&quot;isPaintingLayer&quot;:true}" fill-rule="nonzero" stroke-linejoin="miter" stroke-miterlimit="10" stroke-dasharray="" stroke-dashoffset="0" style="mix-blend-mode: normal">
<path d="M203,180c0,-20.43454 16.56546,-37 37,-37c20.43454,0 37,16.56546 37,37c0,20.43454 -16.56546,37 -37,37c-20.43454,0 -37,-16.56546 -37,-37z" fill="#66c0ff" stroke="none" stroke-width="0" stroke-linecap="butt"/>
<path d="M183.5,183.5c0,-11.32184 9.17816,-20.5 20.5,-20.5c11.32184,0 20.5,9.17816 20.5,20.5c0,11.32184 -9.17816,20.5 -20.5,20.5c-11.32184,0 -20.5,-9.17816 -20.5,-20.5z" fill="#66c0ff" stroke="none" stroke-width="0" stroke-linecap="butt"/>
<path d="M252.5,177.5c0,-10.76955 8.73045,-19.5 19.5,-19.5c10.76955,0 19.5,8.73045 19.5,19.5c0,10.76955 -8.73045,19.5 -19.5,19.5c-10.76955,0 -19.5,-8.73045 -19.5,-19.5z" fill="#66c0ff" stroke="none" stroke-width="0" stroke-linecap="butt"/>
<g fill="#ff9a00" stroke="none" stroke-width="0" stroke-linecap="butt">
<path d="M257.5,213.16667c0,4.69442 -1.9401,8.5 -4.33334,8.5c-2.39324,0 -4.33334,-3.80558 -4.33334,-8.5c0,-4.69442 1.9401,-8.5 4.33334,-8.5c2.39324,0 4.33334,3.80558 4.33334,8.5z"/>
<path d="M260.02105,210.17489c2.23575,4.04198 2.54636,8.14935 0.69379,9.17406c-1.85258,1.02471 -5.16681,-1.42126 -7.40256,-5.46324c-2.23575,-4.04198 -2.54636,-8.14935 -0.69379,-9.17407c1.85258,-1.02471 5.16681,1.42126 7.40256,5.46324z"/>
<path d="M264.07599,207.12547c4.4894,2.71536 7.12471,6.57666 5.88612,8.62446c-1.23859,2.0478 -5.88204,1.50662 -10.37144,-1.20874c-4.4894,-2.71536 -7.12471,-6.57666 -5.88612,-8.62446c1.23859,-2.0478 5.88203,-1.50663 10.37144,1.20874z"/>
</g>
<g stroke="none" stroke-width="0" stroke-linecap="butt">
<path d="M218.04028,211.01558c-3.33439,3.30446 -7.4031,4.60522 -9.08773,2.90534c-1.68463,-1.69988 -0.34723,-5.7567 2.98716,-9.06116c3.33439,-3.30446 7.4031,-4.60522 9.08773,-2.90534c1.68463,1.69988 0.34723,5.7567 -2.98716,9.06116z" fill="#ff9a00"/>
<path d="M221.93989,210.7003c-1.2972,4.43322 -3.99596,7.54508 -6.02786,6.95053c-2.03189,-0.59455 -2.62748,-4.67036 -1.33028,-9.10358c1.2972,-4.43322 3.99596,-7.54508 6.02786,-6.95053c2.03189,0.59455 2.62748,4.67036 1.33028,9.10358z" fill="#ff9a00"/>
<path d="M226.96018,211.43395c1.23145,5.10014 0.34384,9.68998 -1.98254,10.2517c-2.32638,0.56172 -5.21057,-3.11741 -6.44202,-8.21755c-1.23145,-5.10014 -0.34385,-9.68998 1.98254,-10.2517c2.32638,-0.56172 5.21058,3.1174 6.44203,8.21754z" fill="#ff9a00"/>
</g>
<path d="M245.67583,182.27094l-5.46443,7.58815l-7.39135,-7.49452z" data-paper-data="{&quot;index&quot;:null}" fill="#ff9a00" stroke="#ff9a00" stroke-width="0.5" stroke-linecap="round"/>
<g stroke="none" stroke-width="0" stroke-linecap="butt">
<path d="M235.37586,169.40037c0,4.66776 -2.38987,8.45172 -5.33793,8.45172c-2.94806,0 -5.33793,-3.78397 -5.33793,-8.45172c0,-4.66776 2.38987,-8.45172 5.33793,-8.45172c2.94806,0 5.33793,3.78397 5.33793,8.45172z" fill="#000000"/>
<path d="M255.24483,169.10381c0,4.66776 -2.38987,8.45172 -5.33793,8.45172c-2.94806,0 -5.33793,-3.78396 -5.33793,-8.45172c0,-4.66776 2.38987,-8.45172 5.33793,-8.45172c2.94806,0 5.33793,3.78396 5.33793,8.45172z" fill="#000000"/>
<path d="M234.18965,170.14175c0,2.29293 -0.73024,4.15172 -1.63103,4.15172c-0.9008,0 -1.63103,-1.85879 -1.63103,-4.15172c0,-2.29293 0.73024,-4.15172 1.63103,-4.15172c0.9008,0 1.63103,1.85879 1.63103,4.15172z" fill="#ffffff"/>
<path d="M254.05862,170.29002c0,2.21104 -0.79662,4.00345 -1.77931,4.00345c-0.98269,0 -1.77931,-1.7924 -1.77931,-4.00345c0,-2.21104 0.79662,-4.00345 1.77931,-4.00345c0.98269,0 1.77931,1.7924 1.77931,4.00345z" fill="#ffffff"/>
</g>
</g>
</g>
</svg>